<svg width="170" height="163" viewBox="0 0 170 163" fill="none" xmlns="http://www.w3.org/2000/svg">
<rect width="170" height="162.36" rx="81.1798" fill="black"/>
<path d="M101.696 71.8375V109.608L120.101 98.9385V60.483L101.696 71.8375Z" fill="#33369F"/>
<path d="M85.959 40L50 59.7414L69.712 71.8375L85.902 62.7085L101.695 71.8375L120.1 60.4831L85.959 40Z" fill="#B7B9E7"/>
<path d="M50 59.7415L69.769 71.8375L69.599 90.4945L91.64 102.477L91.867 122.902L50 99.0535V59.7415Z" fill="#7173CD"/>
<path d="M85.9028 62.7085L101.695 71.8375C101.695 71.8375 101.738 90.7475 101.738 90.4625C102.885 91.0155 86.1298 82.1075 86.1298 82.1075L85.9028 62.7085Z" fill="#7173CD"/>
<path d="M69.5979 90.4945L86.1289 82.1075L85.9019 62.7085L69.7679 71.8375L69.5979 90.4945Z" fill="#33369F"/>
<path d="M91.6389 102.477L69.5979 90.4945L86.1289 82.1075L107.261 93.4045L91.6389 102.477Z" fill="#B7B9E7"/>
<path d="M91.8679 122.902L106.979 112.689L107.263 93.4045L91.6409 102.476L91.8679 122.902Z" fill="#33369F"/>
</svg>
