<svg width="41" height="41" viewBox="0 0 41 41" fill="none" xmlns="http://www.w3.org/2000/svg">
<rect width="41" height="41" rx="3" fill="black"/>
<path d="M20.1713 14.4704C19.1045 14.4704 17.4532 13.3027 15.7142 13.3449C13.4199 13.3731 11.3155 14.6252 10.1318 16.6088C7.74978 20.5902 9.51802 26.4709 11.8416 29.7067C12.9814 31.2823 14.3259 33.055 16.1088 32.9987C17.8185 32.9283 18.4615 31.9295 20.5367 31.9295C22.5972 31.9295 23.1817 32.9987 24.9938 32.9565C26.8351 32.9284 28.0042 31.3527 29.1295 29.7629C30.4301 27.934 30.9708 26.1614 31 26.0629C30.9562 26.0488 27.4197 24.7404 27.3758 20.8013C27.3466 17.5092 30.167 15.9335 30.2985 15.8632C28.6911 13.5982 26.2214 13.3449 25.3592 13.2886C23.1087 13.1198 21.2235 14.4704 20.1713 14.4704V14.4704ZM23.9709 11.1502C24.9207 10.0529 25.5491 8.5194 25.3738 7C24.0147 7.05627 22.378 7.87225 21.3989 8.9696C20.5221 9.94033 19.7622 11.5019 19.9667 12.9932C21.4719 13.1058 23.021 12.2476 23.9709 11.1502" fill="white"/>
</svg>
